<svg version="1" xmlns="http://www.w3.org/2000/svg" width="933.333" height="933.333" viewBox="0 0 700.000000 700.000000"><path d="M309.5 73.6c-32.4 3.7-70 14.1-94 26.1-44.9 22.5-90.3 67.6-132.7 132.1-18.6 28.1-29.2 48-32.8 61.3-2.8 10.4-3.7 25.4-2 34.2 1.1 6.3 1.4 6.7 6.8 10.7 12.1 9 30.2 16.3 48.3 19.6 19.2 3.4 57 2.6 73.4-1.6 19-4.9 40.8-21.4 57.9-43.7 4.6-6.2 7.2-9.8 32.6-46.8 20.4-29.7 29.3-40.6 40.3-49.3 18-14.3 32.7-18.3 59.9-16.3 39.2 2.9 69.1 14.7 100 39.6 11.8 9.4 15.5 13.5 16.4 18.4 1.3 6.3-5.2 9.4-21.8 10.6-40.4 2.7-46.5 4.3-57.1 15.2-6.9 7.1-11.3 15.1-13.2 24-6.9 32.5 12.6 64.1 52 84.2 9.4 4.8 11.4 5.1 45.5 5.2 29.6.2 39.2-.8 59.7-5.7 40.3-9.6 78.2-32.9 89.5-54.9 19.5-38 11.4-83.9-24-135-15-21.7-42.3-50.9-61.2-65.5-39-30-81.3-48.7-124.5-55.1-7.1-1-16.6-2.5-21-3.4-19.7-3.6-31.7-4.7-58-5-19.5-.3-30.6 0-40 1.1z"/><path d="M165.1 383.6c-20.8 3.3-46.9 11.3-73.7 22.9-14.9 6.4-18.1 8.7-21.2 14.7-9.3 18.7-2.4 47.9 18.1 76.4 42.4 59.2 111 102.4 196.4 123.8 24.8 6.2 35 7.1 78.8 7.1 40 0 43.4-.3 64-6.2 25.5-7.3 47.2-17.9 77.6-37.9 18.4-12.1 20.9-14.2 39.8-32.7 32.3-32 57.1-62.3 84.7-103.8 14.8-22.3 17.8-28.3 17.9-36.1 0-9.8-5.7-13.5-19.9-12.5-10.1.7-17.1 3.1-30.5 10.7-25.1 14.1-48.6 22.4-96.6 34.4-53.4 13.3-84.2 18.1-110 17.3-30.4-.9-42-5.1-78-27.8-56.6-35.7-75-44.6-102-49.9-12.6-2.4-31.1-2.6-45.4-.4z"/></svg>