<?xml version="1.0" encoding="utf-8"?>
<svg viewBox="0 0 200 200">
  <path d="m 115.54266,81.289263 c 4.11647,-7.85568 28.02945,-0.864935 21.65277,-9.655563 C 125.28916,60.415883 112.8636,56.499171 98.926688,57.045068 85.323576,58.34678 79.429809,72.41945 72.03029,81.993677 c -6.176945,9.6483 -14.490465,20.558243 -27.148849,20.516303 -10.607317,1.10137 -22.432732,0.0848 -30.842,-7.159099 -3.480255,-13.599321 7.419664,-24.863849 13.815492,-35.68217 10.72997,-13.778796 23.147236,-28.15221 40.182794,-33.978282 17.748343,-6.17721 34.247293,-6.493758 51.028093,-3.049593 25.97473,2.529313 48.72669,19.867499 61.37504,42.813166 5.37403,11.219918 7.67105,22.643349 0.14137,33.648115 -9.48929,9.726373 -23.15161,13.829043 -35.92752,14.550193 -5.21354,-0.26355 -10.58351,0.29074 -15.74114,-0.54119 -22.83702,-10.20395 -18.60954,-28.174928 -13.37091,-31.821857 Z" fill="#000000"></path>
  <path d="m 87,178.9604 c -25.869999,-5.36147 -51.788281,-18.63662 -65.359229,-42.20635 -3.010841,-5.89606 -5.393728,-17.58924 2.701163,-19.90799 8.936645,-4.04006 18.532896,-7.38276 28.374546,-7.90673 16.998966,-0.27775 30.061322,11.78354 44.064615,19.48839 12.538035,6.42304 27.194585,2.75857 40.234215,-0.0826 11.54565,-2.80443 23.24473,-5.30407 33.65884,-11.31446 6.31912,-4.46535 18.9802,-5.53544 12.89941,5.36287 -9.31862,15.15215 -20.50889,29.23765 -33.91067,41.03102 -12.06138,8.77467 -26.07112,16.7214 -41.49738,16.37524 C 101.10258,180.10253 94.020945,179.75875 87,178.9604 Z" fill="#000000"></path>
</svg>